<?xml version="1.0" encoding="utf-8" ?>
<svg xmlns="http://www.w3.org/2000/svg" xmlns:xlink="http://www.w3.org/1999/xlink" width="1024" height="1024">
	<path fill="#FEFEFE" d="M0 0L1024 0L1024 1024L0 1024L0 0Z"/>
	<path fill="#DCA823" d="M726.199 301.392C739.96 301.105 753.796 301.425 767.565 301.516C757.934 309.321 740.011 308.85 728.192 308.991C724.63 309.033 720.788 309.348 717.248 309.058C716.68 309.011 716.488 308.945 715.993 308.817C719.469 306.431 722.841 303.941 726.199 301.392Z"/>
	<path fill="#DCA823" d="M369.103 393.66L426.998 431.135C437.591 438.064 448.406 446.179 459.731 451.797L450.886 458.423L403.403 421.568C393.738 414.193 383.599 407.241 374.327 399.386C372.47 397.813 369.94 396.011 369.103 393.66Z"/>
	<path fill="#F1CC45" d="M751.65 462.242L785.451 439.068C785.084 453.513 785.518 469.408 782.563 483.564C781.722 471.452 771.838 475.526 765.53 469.497C762.617 466.713 761.699 462.156 758.68 459.345C756.592 459.519 754.236 461.645 752.596 462.898C751.931 466.617 751.577 472.008 749.266 475.058L751.65 462.242Z"/>
	<path fill="#DCA823" d="M512.349 107.807C518.48 120.499 522.933 143.144 526.828 157.339L560.307 282.153C558.017 283.57 555.699 284.948 553.516 286.528C546.992 257.791 539.316 229.182 532.121 200.597L519.176 149.385C515.319 135.873 515.42 121.479 512.349 107.807Z"/>
	<path fill="#855C0D" d="M148.173 253.654C149.004 253.892 149.496 254.063 150.107 254.707C154.915 259.772 159.037 265.913 163.37 271.397C170.989 281.04 178.815 290.516 186.803 299.856C199.503 314.705 213.052 328.707 226.474 342.895C231.63 348.346 244.13 360.472 247.457 366.289C247.703 366.72 247.721 366.865 247.836 367.288C239.754 363.073 198.577 336.171 194.02 331.336C189.289 326.316 181.457 310.74 177.692 304.206L148.173 253.654Z"/>
	<path fill="#BF8C17" d="M582.912 515.514C589.8 509.717 597.405 504.547 604.663 499.218C620.388 487.672 636.294 476.373 652.317 465.243C706.998 427.259 763.102 391.171 818.804 354.704C817.705 356.38 816.556 358.027 815.43 359.686C807.997 363.875 801.16 370.198 793.989 374.98C770.841 390.417 748.193 406.498 725.647 422.793C719.352 427.343 709.236 433.297 704.05 438.179C702.919 439.052 701.685 439.849 700.888 441.054C689.377 449.818 676.98 457.723 665.001 465.837C644.274 479.878 623.328 493.485 601.419 505.627C595.303 509.017 589.262 512.571 582.912 515.514Z"/>
	<defs>
		<linearGradient id="gradient_0" gradientUnits="userSpaceOnUse" x1="517.77032" y1="246.50764" x2="530.8739" y2="246.40538">
			<stop offset="0" stop-color="#FFF59E"/>
			<stop offset="1" stop-color="#FDFFE3"/>
		</linearGradient>
	</defs>
	<path fill="url(#gradient_0)" d="M519.176 149.385L532.121 200.597C539.316 229.182 546.992 257.791 553.516 286.528C544.721 299.238 537.451 312.981 529.144 326.02C525.79 332.055 522.402 338.359 518.474 344.032C518.43 343.779 518.383 343.526 518.343 343.273C517.225 336.234 517.899 328.011 517.883 320.842L518.023 272.84L517.986 192.143C517.947 179.746 517.457 167.272 517.746 154.886C517.798 152.658 517.86 151.23 519.176 149.385Z"/>
	<path fill="#FEF5A6" d="M524.245 189.877L524.799 190.431C527.589 202.474 527.275 215.97 526.991 228.251C526.817 235.766 527.104 243.323 526.764 250.828C526.24 262.417 524.995 274.003 524.756 285.603C524.472 299.377 526.06 313.275 525.241 326.973L525.736 327.469C524.342 328.059 525.675 330.294 524.63 331.408L522.991 330.055C521.399 323.96 523.939 284.153 524.49 276.044C524.788 271.672 526.064 263.328 524.999 259.257L524.293 261.677L523.938 261.529C523.408 254.921 524.372 248.117 524.327 241.473L524.245 189.877Z"/>
	<path fill="#FEFEFE" d="M529.144 326.02C528.292 325.71 527.954 325.458 527.271 324.895C527.073 324.362 526.861 323.878 526.813 323.295C526.597 320.635 527.697 317.194 527.825 314.383C528.038 309.675 527.876 304.958 528.124 300.251C528.521 292.73 529.236 285.245 529.397 277.709C529.705 263.293 529.437 248.646 529.117 234.226C528.864 222.799 528.422 211.71 529.178 200.258L529.52 202.016L529.978 199.419L530.635 199.198L532.121 200.597C539.316 229.182 546.992 257.791 553.516 286.528C544.721 299.238 537.451 312.981 529.144 326.02Z"/>
	<path fill="#F1CC45" d="M704.05 438.179C709.236 433.297 719.352 427.343 725.647 422.793C748.193 406.498 770.841 390.417 793.989 374.98C801.16 370.198 807.997 363.875 815.43 359.686C809.954 372.444 802.772 384.796 796.456 397.182C793.142 403.684 786.782 418.554 782.752 423.162C778.75 427.738 743.818 451.253 737.476 453.834C737.407 453.862 737.334 453.882 737.264 453.906L737.147 453.62C736.892 453.879 734.839 467.558 734.706 469.116C734.623 470.073 734.603 470.547 734.255 471.455C733.3 470.405 732.133 468.229 731.124 467.512C728.91 465.941 723.715 467.848 720.859 466.52C720.645 466.421 720.44 466.305 720.229 466.201C712.252 462.253 706.483 455.718 700.935 448.917C701.739 444.574 701.388 442.013 704.05 438.179Z"/>
	<defs>
		<linearGradient id="gradient_1" gradientUnits="userSpaceOnUse" x1="440.67902" y1="875.30933" x2="494.94675" y2="770.24731">
			<stop offset="0" stop-color="#321800"/>
			<stop offset="1" stop-color="#51350A"/>
		</linearGradient>
	</defs>
	<path fill="url(#gradient_1)" d="M394.084 720.499L394.757 720.171C398.283 725.554 401.167 731.063 404.418 736.585C409.528 745.264 414.801 753.865 419.735 762.643C420.399 763.825 420.743 763.839 421.942 764.156L421.701 764.092L421.631 761.523C422.467 761.018 422.546 761.253 423.495 761.444C425.566 761.861 427.715 762.396 429.822 762.549C431.441 762.666 433.293 762.375 434.86 762.67C436.854 763.045 438.779 764.028 440.73 764.599C444.201 765.616 448.341 765.677 451.933 765.576C455.261 765.483 458.617 765.119 461.891 764.517C465.325 763.886 469.213 761.796 472.65 762.326C477.757 763.114 486.657 770.803 491.369 770.118C493.019 769.878 493.641 769.553 495.109 770.583C495.248 770.681 496.117 771.49 496.216 771.579C497.426 772.672 498.502 773.151 500.031 773.656C501.434 775.783 502.39 777.894 503.347 780.236C504.459 775.622 503.497 767.228 503.5 762.14C503.51 743.023 502.806 723.686 503.682 704.62C503.832 701.357 502.825 697.064 503.698 693.983C504.014 704.217 504.028 714.452 504.089 724.69C504.12 729.762 503.649 735.562 504.43 740.553C505.326 760.436 504.514 780.722 504.525 800.643L504.945 912.385C499.462 904.24 494.997 895.139 490.134 886.6L461.099 836.02L416.406 758.841C409.018 746.104 400.92 733.517 394.084 720.499Z"/>
	<path fill="#BF8C17" d="M464.224 282.487C468.234 266.386 508.444 107.583 511.786 103.725L511.642 105.067L511.868 104.763C511.319 123.662 511.442 142.593 511.299 161.5L510.88 269.736L510.903 322.985C510.909 334.598 510.438 346.469 511.639 358.025L511.062 359.444L500.598 343.19C500.034 343.297 499.321 343.438 498.75 343.372C495.843 343.035 489.939 338.032 487.919 335.94C483.861 333.087 479.481 330.291 475.836 326.932C476.895 324.63 473.918 314.992 473.679 311.594C473.525 309.402 473.923 307.164 474.25 305.001L475.042 304.595C471.612 298.914 467.252 293.833 463.837 288.1C443.256 279.023 422.29 270.521 402.019 260.776C395.432 257.609 389.094 253.93 382.613 250.556C377.406 247.846 370.182 245.093 365.817 241.245C365.005 240.529 364.416 239.594 363.871 238.67C397.034 253.823 430.585 268.423 464.224 282.487Z"/>
	<path fill="#FEF5A6" d="M487.919 335.94C489.053 335.027 489.695 331.174 490.239 329.665C490.494 328.956 490.29 328.886 490.014 328.21L490.616 327.898C494.088 332.904 497.335 338.047 500.598 343.19C500.034 343.297 499.321 343.438 498.75 343.372C495.843 343.035 489.939 338.032 487.919 335.94Z"/>
	<path fill="#F1CC45" d="M475.836 326.932C476.895 324.63 473.918 314.992 473.679 311.594C473.525 309.402 473.923 307.164 474.25 305.001L475.042 304.595C480.428 312.187 485.996 319.805 490.616 327.898L490.014 328.21C490.29 328.886 490.494 328.956 490.239 329.665C489.695 331.174 489.053 335.027 487.919 335.94C483.861 333.087 479.481 330.291 475.836 326.932Z"/>
	<path fill="#FEFEFE" d="M511.633 361.651C507.262 357.48 502.068 354.121 497.161 350.615L473.845 333.932C439.216 308.777 404.593 283.634 370.659 257.542C360.569 249.783 350.453 242.113 340.664 233.968C336.857 230.8 332.702 227.704 329.324 224.101L329.539 223.714L331.553 224.405L332.309 223.629L363.871 238.67C364.416 239.594 365.005 240.529 365.817 241.245C370.182 245.093 377.406 247.846 382.613 250.556C389.094 253.93 395.432 257.609 402.019 260.776C422.29 270.521 443.256 279.023 463.837 288.1C467.252 293.833 471.612 298.914 475.042 304.595L474.25 305.001C473.923 307.164 473.525 309.402 473.679 311.594C473.918 314.992 476.895 324.63 475.836 326.932C479.481 330.291 483.861 333.087 487.919 335.94C489.939 338.032 495.843 343.035 498.75 343.372C499.321 343.438 500.034 343.297 500.598 343.19L511.062 359.444L511.639 358.025C514.198 353.698 516.166 348.563 518.474 344.032C522.402 338.359 525.79 332.055 529.144 326.02C537.451 312.981 544.721 299.238 553.516 286.528C555.699 284.948 558.017 283.57 560.307 282.153C577.447 274.033 595.349 267.15 612.777 259.64C639.606 248.078 666.295 236.099 693.444 225.306L693.545 226.183L693.845 226.216L694.004 226.541C634.272 272.928 572.821 317.2 511.633 361.651Z"/>
	<defs>
		<linearGradient id="gradient_2" gradientUnits="userSpaceOnUse" x1="353.21762" y1="289.1825" x2="464.97052" y2="264.84091">
			<stop offset="0" stop-color="#C47300"/>
			<stop offset="1" stop-color="#E9C442"/>
		</linearGradient>
	</defs>
	<path fill="url(#gradient_2)" d="M332.309 223.629L363.871 238.67C364.416 239.594 365.005 240.529 365.817 241.245C370.182 245.093 377.406 247.846 382.613 250.556C389.094 253.93 395.432 257.609 402.019 260.776C422.29 270.521 443.256 279.023 463.837 288.1C467.252 293.833 471.612 298.914 475.042 304.595L474.25 305.001C473.923 307.164 473.525 309.402 473.679 311.594C473.918 314.992 476.895 324.63 475.836 326.932C467.797 321.913 460.394 315.368 452.78 309.705C440.269 300.398 427.425 291.489 414.871 282.209C398.656 270.223 382.52 258.097 365.87 246.719C354.618 239.029 342.912 231.953 331.553 224.405L332.309 223.629Z"/>
	<path fill="#F1CC45" d="M560.307 282.153C577.447 274.033 595.349 267.15 612.777 259.64C639.606 248.078 666.295 236.099 693.444 225.306L693.545 226.183C686.541 230.373 679.55 234.934 672.073 238.226C671.666 240.072 671.449 240.602 669.901 241.716C667.349 243.552 664.457 245.017 661.853 246.849C638.397 263.352 614.566 279.304 591.211 295.949L556.919 320.566C553.166 323.271 548.993 327.318 544.898 329.265C541.125 332.972 528.507 342.059 523.557 342.777C521.779 345.333 513.712 359.356 511.469 359.785L511.062 359.444L511.639 358.025C514.198 353.698 516.166 348.563 518.474 344.032C522.402 338.359 525.79 332.055 529.144 326.02C537.451 312.981 544.721 299.238 553.516 286.528C555.699 284.948 558.017 283.57 560.307 282.153Z"/>
	<path fill="#FEF5A6" d="M540.266 317.641C540.175 320.723 532.798 330.07 530.796 333.138C532.167 334.331 532.644 335.017 534.465 335.318C538.062 334.285 541.355 329.024 544.898 329.265C541.125 332.972 528.507 342.059 523.557 342.777C528.949 334.322 534.238 325.659 540.266 317.641Z"/>
	<defs>
		<linearGradient id="gradient_3" gradientUnits="userSpaceOnUse" x1="602.55469" y1="295.27118" x2="579.57715" y2="266.4238">
			<stop offset="0" stop-color="#D9970E"/>
			<stop offset="1" stop-color="#AC7216"/>
		</linearGradient>
	</defs>
	<path fill="url(#gradient_3)" d="M560.307 282.153C577.447 274.033 595.349 267.15 612.777 259.64C639.606 248.078 666.295 236.099 693.444 225.306L693.545 226.183C686.541 230.373 679.55 234.934 672.073 238.226L560.569 288.224C556.431 294.049 542.298 312.458 540.266 317.641C534.238 325.659 528.949 334.322 523.557 342.777C521.779 345.333 513.712 359.356 511.469 359.785L511.062 359.444L511.639 358.025C514.198 353.698 516.166 348.563 518.474 344.032C522.402 338.359 525.79 332.055 529.144 326.02C537.451 312.981 544.721 299.238 553.516 286.528C555.699 284.948 558.017 283.57 560.307 282.153Z"/>
	<defs>
		<linearGradient id="gradient_4" gradientUnits="userSpaceOnUse" x1="570.586" y1="690.4812" x2="724.23065" y2="462.92929">
			<stop offset="0" stop-color="#936609"/>
			<stop offset="1" stop-color="#E0BA37"/>
		</linearGradient>
	</defs>
	<path fill="url(#gradient_4)" d="M704.05 438.179C701.388 442.013 701.739 444.574 700.935 448.917C706.483 455.718 712.252 462.253 720.229 466.201C720.44 466.305 720.645 466.421 720.859 466.52C723.715 467.848 728.91 465.941 731.124 467.512C732.133 468.229 733.3 470.405 734.255 471.455C734.603 470.547 734.623 470.073 734.706 469.116C734.839 467.558 736.892 453.879 737.147 453.62L737.264 453.906C738.328 461.419 734.366 475.489 732.349 483.265C719.328 533.46 694.802 574.593 656.544 609.529C649.317 616.128 641.338 622.007 633.275 627.534C628.662 630.696 620.623 634.667 617.15 638.581C611.622 644.811 607.361 653.223 603.168 660.401C595.334 673.807 587.61 687.857 578.574 700.479C577.774 673.321 579.592 646.04 578.63 618.904C597.835 608.123 615.611 595.851 631.943 581.038C663.94 552.016 686.265 515.26 696.003 473.141C698.42 462.687 700.376 451.78 700.888 441.054C701.685 439.849 702.919 439.052 704.05 438.179Z"/>
	<path fill="#BF8C17" d="M323.03 219.044C325.961 221.028 329.044 222.296 332.309 223.629L331.553 224.405L329.539 223.714L329.324 224.101C332.702 227.704 336.857 230.8 340.664 233.968C350.453 242.113 360.569 249.783 370.659 257.542C404.593 283.634 439.216 308.777 473.845 333.932L497.161 350.615C502.068 354.121 507.262 357.48 511.633 361.651C572.821 317.2 634.272 272.928 694.004 226.541L693.845 226.216L693.545 226.183L693.444 225.306C695.267 224.544 696.992 223.583 698.737 222.66C687.483 239.544 676.502 256.511 665.543 273.592C660.629 281.25 655.67 291.071 649.777 297.777C645.747 302.365 639.251 305.965 634.254 309.443L603.715 330.483C573.237 351.55 543.106 373.163 512.497 394.028C487.914 377.991 464.445 360.053 440.194 343.505L393.811 311.975C387.944 307.97 378.144 302.435 373.487 297.382C368.779 292.275 365.568 285.202 361.761 279.378L323.03 219.044Z"/>
	<defs>
		<linearGradient id="gradient_5" gradientUnits="userSpaceOnUse" x1="355.73779" y1="438.08566" x2="419.0943" y2="367.56619">
			<stop offset="0" stop-color="#CD9F28"/>
			<stop offset="1" stop-color="#FBD33A"/>
		</linearGradient>
	</defs>
	<path fill="url(#gradient_5)" d="M251.153 301.232C266.823 300.538 282.716 300.949 298.407 301.021L414.258 380.315C444.345 401.166 473.953 422.805 504.574 442.876C505.017 470.865 504.528 498.862 504.592 526.854C499.659 521.841 495.187 516.39 490.807 510.893C478.084 518.301 465.349 525.781 453.018 533.832C457.219 539.331 462.025 544.712 465.85 550.445C465.094 550.108 464.52 549.867 463.899 549.302C461.374 547.001 452.47 535.894 452.313 533.263C455.472 529.825 461.479 527.605 465.364 524.694C464.815 523.643 464.14 523.181 463.065 522.708C460.743 521.686 457.968 521.252 455.528 520.512C450.546 519.001 445.582 516.428 441.191 513.661C438.347 511.868 435.036 509.767 432.603 507.446C431.339 506.241 430.113 504.023 428.511 503.268C427.419 502.752 426.903 502.825 425.849 503.327C422.946 504.708 420.35 507.194 417.552 508.838C411.683 512.287 405.138 514.859 398.84 517.424C401.53 521.632 406.723 525.99 407.851 530.905C404.065 526.443 400.851 521.555 397.139 517.049C421.66 506.864 447.48 490.959 458.017 465.226C459.927 460.562 461.173 455.64 461.773 450.634C445.786 437.46 425.834 424.444 408.8 412.213C375.062 387.988 341.345 363.722 307.198 340.075L271.346 315.478C264.663 310.928 257.167 306.595 251.153 301.232Z"/>
	<defs>
		<linearGradient id="gradient_6" gradientUnits="userSpaceOnUse" x1="235.32596" y1="392.72" x2="360.32513" y2="315.13452">
			<stop offset="0" stop-color="#C39420"/>
			<stop offset="1" stop-color="#F2CA3E"/>
		</linearGradient>
	</defs>
	<path fill="url(#gradient_6)" d="M141.497 242.716C149.994 249.37 159.749 254.943 168.815 260.849L212.612 289.673C248.51 313.014 283.845 337.102 319.47 360.846L353.211 383.173C358.262 386.463 364.711 389.661 369.103 393.66C369.94 396.011 372.47 397.813 374.327 399.386C383.599 407.241 393.738 414.193 403.403 421.568L450.886 458.423L419.25 482.473L320.063 415.475L272.206 383.639C264.096 378.232 255.706 373.026 247.836 367.288C247.721 366.865 247.703 366.72 247.457 366.289C244.13 360.472 231.63 348.346 226.474 342.895C213.052 328.707 199.503 314.705 186.803 299.856C178.815 290.516 170.989 281.04 163.37 271.397C159.037 265.913 154.915 259.772 150.107 254.707C149.496 254.063 149.004 253.892 148.173 253.654C145.599 250.285 143.504 246.448 141.497 242.716Z"/>
	<defs>
		<linearGradient id="gradient_7" gradientUnits="userSpaceOnUse" x1="286.64725" y1="580.85382" x2="372.59" y2="465.78696">
			<stop offset="0" stop-color="#875E0B"/>
			<stop offset="1" stop-color="#AC7A0D"/>
		</linearGradient>
	</defs>
	<path fill="url(#gradient_7)" d="M203.637 354.861C208.715 356.884 214.086 361.292 218.745 364.309L253.072 386.667C304.651 420.452 355.996 454.72 406.618 489.93L401.4 492.349C393.738 488.797 386.513 483.88 379.154 479.706C360.286 469.006 341.658 458.093 323.026 446.984C325.043 458.15 326.415 469.414 328.814 480.513C332.009 495.293 337.876 507.651 345.045 520.845C363.322 554.481 386.936 581.274 419.18 602.041C428.146 607.492 437.075 612.339 446.533 616.893L446.506 702.819C442.131 695.654 437.284 688.771 432.739 681.711C423.365 667.152 414.177 652.439 405.361 637.535C395.403 632.197 386.035 625.452 377.109 618.557C322.971 576.74 294.186 523.091 285.514 455.648C277.477 450.618 269.701 444.96 261.859 439.618C255.029 434.966 244.679 429.069 239.226 423.198C234.804 418.438 218.853 384.661 214.907 376.947C211.226 369.751 206.478 362.397 203.637 354.861Z"/>
	<path fill="#F1CC45" d="M879.612 243.301C871.188 260.734 860.94 277.271 851.524 294.171L837.967 318.317C835.73 322.223 833.558 326.884 830.57 330.243C827.318 333.9 821.326 336.794 817.16 339.4C813.328 343.011 808.353 345.894 803.973 348.836L782.836 363.004C777.41 366.635 770.765 372.067 765.01 374.811L734.842 394.821C728.77 398.845 722.682 403.186 716.365 406.803L647.9 452.253C635.449 460.628 623.272 469.697 610.642 477.75L610.332 477.063C603.221 480.74 597.604 487.175 590.513 490.779C582.041 495.084 571.613 505.979 563.316 508.953L564.399 506.359C563.535 505.283 562.931 505.33 561.632 505.214C558.268 504.914 555.911 506.665 552.771 507.336C550.192 507.886 547.529 508.147 544.906 508.373C537.232 509.032 529.049 507.338 521.605 508.502L521.15 508.999C518.747 505.832 521.322 497.584 520.052 493.335C519.564 476.669 519.899 459.915 519.894 443.239C533.413 433.125 547.722 423.781 561.722 414.343L620.069 374.562L678.134 334.536C690.537 325.913 702.961 316.426 715.993 308.817C716.488 308.945 716.68 309.011 717.248 309.058C720.788 309.348 724.63 309.033 728.192 308.991C740.011 308.85 757.934 309.321 767.565 301.516L778.273 301.374C730.769 332.339 684.403 364.628 638.101 397.349C623.245 407.847 608.573 418.565 593.887 429.297C584.406 436.227 574.335 442.966 565.635 450.86C581.255 444.601 595.896 433.908 610.028 424.781C635.662 408.226 660.954 391.108 686.38 374.23L817.711 286.243C827.336 279.675 836.836 272.912 846.494 266.397C857.619 258.891 869.014 251.54 879.612 243.301Z"/>
	<path fill="#FEF5A6" d="M734.053 353.709C733.215 355.196 732.796 355.71 732.773 357.448C733.879 359.794 736.315 360.969 737.997 362.879C740.046 365.204 741.601 368.008 743.819 370.186C744.596 370.949 745.512 371.553 746.523 371.96C751.273 373.87 760.823 372.159 763.677 373.469C764.095 373.661 764.72 374.454 765.01 374.811L734.842 394.821C728.77 398.845 722.682 403.186 716.365 406.803C720.409 401.745 754.821 380.392 763.509 374.774C754.393 374.454 746.822 377.395 739.865 369.616C737.539 367.016 735.419 364.063 732.534 362.063C731.11 361.076 729.811 359.906 728.347 358.98C726.445 357.777 698.693 380.126 693.739 381.375C695.94 378.52 727.767 357.88 734.053 353.709Z"/>
	<path fill="#FEFEFE" d="M826.133 292.222C835.344 285.742 844.738 279.331 854.148 273.146C846.842 285.824 839.705 298.532 832.71 311.387C830.105 316.175 826.697 321.151 824.602 326.126C823.994 326.409 823.399 326.831 822.826 327.182C821.176 319.143 823.418 311.33 822.166 303.472C821.783 301.066 821.371 298.755 821.332 296.309C823.347 295.21 824.872 294.164 826.133 292.222Z"/>
	<defs>
		<linearGradient id="gradient_8" gradientUnits="userSpaceOnUse" x1="758.93408" y1="378.03464" x2="804.24091" y2="288.2916">
			<stop offset="0" stop-color="#FDEC7F"/>
			<stop offset="1" stop-color="#FEFFCB"/>
		</linearGradient>
	</defs>
	<path fill="url(#gradient_8)" d="M826.133 292.222C824.872 294.164 823.347 295.21 821.332 296.309C821.371 298.755 821.783 301.066 822.166 303.472C823.418 311.33 821.176 319.143 822.826 327.182C823.399 326.831 823.994 326.409 824.602 326.126C822.119 330.469 819.231 334.855 817.16 339.4C813.328 343.011 808.353 345.894 803.973 348.836L782.836 363.004C777.41 366.635 770.765 372.067 765.01 374.811C764.72 374.454 764.095 373.661 763.677 373.469C760.823 372.159 751.273 373.87 746.523 371.96C745.512 371.553 744.596 370.949 743.819 370.186C741.601 368.008 740.046 365.204 737.997 362.879C736.315 360.969 733.879 359.794 732.773 357.448C732.796 355.71 733.215 355.196 734.053 353.709C753.089 340.444 772.683 327.876 791.993 315.006C803.327 307.451 814.363 299.054 826.133 292.222Z"/>
	<path fill="#855C0D" d="M237.467 439.625C247.909 446.495 263.964 456.194 272.72 464.354C283.537 529.261 309.149 577.648 358.738 621.291C364.667 626.508 370.949 631.382 377.411 635.919C382.95 639.809 391.626 644.326 395.92 649.313C399.436 653.395 402.241 658.596 405.088 663.176L418.776 685.185C432.79 707.599 447.65 729.633 460.68 752.624C460.579 702.41 460.329 652.118 461.026 601.91C442.926 578.647 424.787 555.027 407.851 530.905C406.723 525.99 401.53 521.632 398.84 517.424C405.138 514.859 411.683 512.287 417.552 508.838C420.35 507.194 422.946 504.708 425.849 503.327C426.903 502.825 427.419 502.752 428.511 503.268C430.113 504.023 431.339 506.241 432.603 507.446C435.036 509.767 438.347 511.868 441.191 513.661C445.582 516.428 450.546 519.001 455.528 520.512C457.968 521.252 460.743 521.686 463.065 522.708C464.14 523.181 464.815 523.643 465.364 524.694C461.479 527.605 455.472 529.825 452.313 533.263C452.47 535.894 461.374 547.001 463.899 549.302C464.52 549.867 465.094 550.108 465.85 550.445C472.065 557.626 478.057 565.076 483.901 572.562C488.152 578.009 492.2 583.956 497.231 588.7C499.399 590.743 502.012 592.31 504.513 593.91L504.552 689.929C504.527 706.663 505.336 723.865 504.43 740.553C503.649 735.562 504.12 729.762 504.089 724.69C504.028 714.452 504.014 704.217 503.698 693.983C502.825 697.064 503.832 701.357 503.682 704.62C502.806 723.686 503.51 743.023 503.5 762.14C503.497 767.228 504.459 775.622 503.347 780.236C502.39 777.894 501.434 775.783 500.031 773.656C498.502 773.151 497.426 772.672 496.216 771.579C496.117 771.49 495.248 770.681 495.109 770.583C493.641 769.553 493.019 769.878 491.369 770.118C486.657 770.803 477.757 763.114 472.65 762.326C469.213 761.796 465.325 763.886 461.891 764.517C458.617 765.119 455.261 765.483 451.933 765.576C448.341 765.677 444.201 765.616 440.73 764.599C438.779 764.028 436.854 763.045 434.86 762.67C433.293 762.375 431.441 762.666 429.822 762.549C427.715 762.396 425.566 761.861 423.495 761.444C422.546 761.253 422.467 761.018 421.631 761.523L421.701 764.092L421.942 764.156C420.743 763.839 420.399 763.825 419.735 762.643C414.801 753.865 409.528 745.264 404.418 736.585C401.167 731.063 398.283 725.554 394.757 720.171L394.084 720.499C391.621 717.207 389.608 713.216 387.523 709.655L375.026 688.25C372.501 683.934 370.071 679.238 366.615 675.58C362.736 671.475 350.832 665.016 345.33 660.724C327.201 646.579 311.158 630.766 296.585 612.98C263.238 572.281 241.643 521.967 237.803 469.315C237.089 459.537 236.5 449.396 237.467 439.625Z"/>
	<defs>
		<linearGradient id="gradient_9" gradientUnits="userSpaceOnUse" x1="692.26971" y1="869.93744" x2="598.21643" y2="475.35617">
			<stop offset="0" stop-color="#442400"/>
			<stop offset="1" stop-color="#F2C543"/>
		</linearGradient>
	</defs>
	<path fill="url(#gradient_9)" d="M752.596 462.898C754.236 461.645 756.592 459.519 758.68 459.345C761.699 462.156 762.617 466.713 765.53 469.497C771.838 475.526 781.722 471.452 782.563 483.564C781.506 494.256 778.771 504.78 776.041 515.142C763.034 564.515 736.898 606.978 700.247 642.4C694.663 647.796 689.061 653.267 683.054 658.191C677.462 662.776 671.688 667.072 665.789 671.253C661.823 674.063 656.277 676.999 653.103 680.609C648.28 686.095 644.631 694.183 640.942 700.551L617.885 740.284C615.572 744.254 612.953 750.46 609.836 753.575C606.71 760.738 601.966 767.831 598.049 774.63L575.25 814.243L541.554 873.6C534.312 886.487 527.317 899.6 519.648 912.233C519.488 891.366 519.901 870.455 519.961 849.582L520.168 729.836C519.69 716.76 520.114 703.508 520.105 690.416L520.112 615.977C520.232 575.125 519.36 534.173 520.052 493.335C521.322 497.584 518.747 505.832 521.15 508.999L521.605 508.502C529.049 507.338 537.232 509.032 544.906 508.373C547.529 508.147 550.192 507.886 552.771 507.336C555.911 506.665 558.268 504.914 561.632 505.214C562.931 505.33 563.535 505.283 564.399 506.359L563.316 508.953C571.613 505.979 582.041 495.084 590.513 490.779C597.604 487.175 603.221 480.74 610.332 477.063L610.642 477.75C607.104 480.785 602.812 483.39 598.999 486.096C587.426 494.306 575.499 501.967 563.894 510.125C564.821 537.629 563.98 565.446 563.985 592.978L563.823 753.916C569.287 742.655 576.377 731.819 582.891 721.12L606.884 681.428L619.524 660.915C621.7 657.401 623.805 653.359 626.52 650.242C631.288 644.77 641.559 639.703 647.802 635.246C654.428 630.515 660.761 625.217 666.942 619.922C702.035 589.856 727.867 546.871 742.042 503.183C745.037 493.953 746.776 484.422 749.266 475.058C751.577 472.008 751.931 466.617 752.596 462.898Z"/>
</svg>
